<svg width="192" height="192" viewBox="0 0 192 192" fill="none" xmlns="http://www.w3.org/2000/svg">
  <!-- Background circle with gradient -->
  <defs>
    <linearGradient id="bgGradient" x1="0%" y1="0%" x2="100%" y2="100%">
      <stop offset="0%" style="stop-color:#3B82F6;stop-opacity:1" />
      <stop offset="100%" style="stop-color:#1E40AF;stop-opacity:1" />
    </linearGradient>
    <linearGradient id="gearGradient" x1="0%" y1="0%" x2="100%" y2="100%">
      <stop offset="0%" style="stop-color:#60A5FA;stop-opacity:1" />
      <stop offset="100%" style="stop-color:#93C5FD;stop-opacity:1" />
    </linearGradient>
  </defs>
  
  <!-- Background circle -->
  <circle cx="96" cy="96" r="88" fill="url(#bgGradient)" stroke="#1E40AF" stroke-width="8"/>
  
  <!-- Clock face -->
  <circle cx="96" cy="96" r="60" fill="#FFFFFF" stroke="#3B82F6" stroke-width="4"/>
  
  <!-- Clock numbers -->
  <circle cx="96" cy="48" r="4" fill="#3B82F6"/>
  <circle cx="144" cy="96" r="4" fill="#3B82F6"/>
  <circle cx="96" cy="144" r="4" fill="#3B82F6"/>
  <circle cx="48" cy="96" r="4" fill="#3B82F6"/>
  
  <!-- Additional hour markers -->
  <circle cx="121" cy="62" r="2" fill="#93C5FD"/>
  <circle cx="130" cy="121" r="2" fill="#93C5FD"/>
  <circle cx="71" cy="130" r="2" fill="#93C5FD"/>
  <circle cx="62" cy="71" r="2" fill="#93C5FD"/>
  
  <!-- Clock hands -->
  <!-- Hour hand pointing to 3 -->
  <line x1="96" y1="96" x2="120" y2="96" stroke="#1E40AF" stroke-width="6" stroke-linecap="round"/>
  <!-- Minute hand pointing to 12 -->
  <line x1="96" y1="96" x2="96" y2="60" stroke="#1E40AF" stroke-width="4" stroke-linecap="round"/>
  
  <!-- Center dot -->
  <circle cx="96" cy="96" r="6" fill="#1E40AF"/>
  
  <!-- Gear teeth around the outside -->
  <path d="M96 16 L108 24 L96 32 L84 24 Z" fill="url(#gearGradient)"/>
  <path d="M176 96 L168 84 L160 96 L168 108 Z" fill="url(#gearGradient)"/>
  <path d="M96 176 L84 168 L96 160 L108 168 Z" fill="url(#gearGradient)"/>
  <path d="M16 96 L24 108 L32 96 L24 84 Z" fill="url(#gearGradient)"/>
  
  <!-- Corner gear teeth -->
  <path d="M158 38 L152 32 L146 38 L152 44 Z" fill="url(#gearGradient)"/>
  <path d="M158 154 L152 160 L146 154 L152 148 Z" fill="url(#gearGradient)"/>
  <path d="M38 154 L44 160 L50 154 L44 148 Z" fill="url(#gearGradient)"/>
  <path d="M38 38 L44 32 L50 38 L44 44 Z" fill="url(#gearGradient)"/>
  
  <!-- Additional small gear teeth -->
  <path d="M134 26 L130 22 L126 26 L130 30 Z" fill="#93C5FD"/>
  <path d="M166 58 L170 62 L166 66 L162 62 Z" fill="#93C5FD"/>
  <path d="M166 134 L170 130 L166 126 L162 130 Z" fill="#93C5FD"/>
  <path d="M134 166 L130 170 L126 166 L130 162 Z" fill="#93C5FD"/>
  <path d="M58 166 L62 170 L66 166 L62 162 Z" fill="#93C5FD"/>
  <path d="M26 134 L22 130 L26 126 L30 130 Z" fill="#93C5FD"/>
  <path d="M26 58 L22 62 L26 66 L30 62 Z" fill="#93C5FD"/>
  <path d="M58 26 L62 22 L66 26 L62 30 Z" fill="#93C5FD"/>
</svg> 
